<?xml version="1.0" encoding="utf-8"?>
<!-- Generator: Adobe Illustrator 27.8.1, SVG Export Plug-In . SVG Version: 6.00 Build 0)  -->
<svg version="1.1" id="Layer_1" xmlns="http://www.w3.org/2000/svg" xmlns:xlink="http://www.w3.org/1999/xlink" x="0px" y="0px"
	 viewBox="0 0 1200 1088.2" style="enable-background:new 0 0 1200 1088.2;" xml:space="preserve">
<g transform="translate(0.000000,1200.000000) scale(0.100000,-0.100000)">
	<path d="M2310,10824c-8-2-61-9-117-15c-125-15-291-56-403-100c-30-12-66-25-80-30c-35-11-259-128-295-154c-16-11-37-25-47-31
		c-156-91-433-348-555-515c-38-52-72-102-76-110s-21-37-37-65c-92-152-165-346-214-571c-22-97-22-372-1-463c42-180,111-319,235-470
		c29-36,76-71,93-71c5,0,120,164,142,202c34,57,150,216,205,282c249,296,507,551,735,727c39,29,72,56,75,59c49,57,707,490,840,553
		c8,4,29,15,45,25c59,36,292,161,398,214c74,37,78,41,72,66c-11,46-120,164-225,246c-52,40-234,136-259,136c-9,0-21,4-27,9
		C2779,10781,2381,10842,2310,10824z"/>
	<path d="M9540,10822c-299-34-447-82-624-203c-70-48-191-165-234-227c-37-54-31-65,61-109c84-41,470-239,497-255
		c70-41,172-99,176-99c2,0,23-12,47-27c23-15,58-36,77-48c318-183,747-539,965-801c27-32,70-82,95-110c25-27,74-86,110-130
		c35-43,67-81,70-84s35-43,70-90c36-47,70-90,75-96c6-6,24-29,40-50c17-21,50-64,75-95c25-32,64-82,88-113s49-56,56-56
		c19,0,122,113,169,182c87,132,131,251,162,443c26,158,20,279-21,475c-90,419-408,849-848,1143c-114,77-314,185-391,213
		c-202,73-332,107-470,123C9680,10820,9576,10826,9540,10822z"/>
	<path d="M3570,7234c-104-15-184-33-227-51c-17-8-36-14-43-14c-13,0-150-54-190-74c-463-240-792-624-951-1111
		c-97-297-105-654-19-905c53-154,192-379,282-458c17-15,43-38,57-51c82-75,254-162,401-204c258-74,559-58,820,43c30,12,66,25,80,30
		c28,9,181,87,226,116c165,103,282,201,411,343c232,257,365,517,450,881c25,108,25,451-1,565c-52,236-124,380-284,563
		C4358,7163,3961,7291,3570,7234z M4210,6544c112-57,164-142,164-270c0-75-3-86-36-145c-91-162-309-201-449-80c-54,46-82,94-99,173
		c-29,129,44,269,170,326C4028,6579,4145,6577,4210,6544z"/>
	<path d="M8075,7238c-338-59-559-180-725-399c-126-167-186-300-231-515c-19-88-21-122-16-290c3-104,10-206,15-225c6-19,18-71,27-115
		s22-96,30-115c7-19,26-66,41-105c38-101,62-149,118-245c110-188,175-272,314-408c82-80,277-235,337-268c309-170,525-234,785-234
		c193,0,348,34,530,117c98,45,263,171,325,251c111,139,150,207,203,347c38,102,50,155,68,285c25,188,10,425-37,585
		c-11,39-25,88-30,110c-6,22-14,44-20,50c-5,5-9,15-9,22c0,41-143,303-226,413c-22,30-45,62-50,71c-35,63-248,265-384,366
		c-60,44-275,173-289,173c-5,0-35,12-67,26C8582,7225,8264,7271,8075,7238z M8026,6552c88-40,127-83,166-183c43-110,1-252-97-327
		c-163-126-389-61-464,133c-28,73-27,130,4,207c28,70,84,131,150,165C7838,6575,7970,6577,8026,6552z"/>
	<path d="M5840,4769c-374-42-624-233-549-423c10-26,28-58,39-69c11-12,20-24,20-28c0-3,21-22,48-41c87-65,208-112,357-139
		c98-17,108-26,128-108c55-226-39-425-250-527c-176-86-366-82-558,13c-75,37-178,133-207,192c-15,30-34,67-42,82l-15,28l-33-20
		c-18-10-49-32-68-48c-38-33-39-22,9-119c42-87,193-226,299-278c139-67,194-78,362-78c134,1,151,3,231,30c129,45,211,95,300,184
		c43,43,83,79,88,79s21-15,35-32c94-117,212-191,391-243c92-27,318-25,405,5c155,52,296,140,378,236c46,54,106,169,98,189
		c-6,17-86,72-110,77c-10,1-22-4-26-12s-15-32-25-53c-39-79-148-181-245-228c-186-90-359-89-545,0c-95,46-173,116-220,196
		c-29,49-29,52-29,200c0,204,0,204,124,228c121,23,209,46,237,64c12,7,31,13,42,13s23,5,26,11c4,5,17,14,28,19
		c44,18,137,101,159,142c32,63,31,150-3,203c-73,113-195,182-424,239C6223,4771,5947,4781,5840,4769z"/>
</g>
</svg>
