<?xml version="1.0" standalone="no"?>
<!DOCTYPE svg PUBLIC "-//W3C//DTD SVG 20010904//EN"
 "http://www.w3.org/TR/2001/REC-SVG-20010904/DTD/svg10.dtd">
<svg version="1.0" xmlns="http://www.w3.org/2000/svg"
 width="1200.000000pt" height="1200.000000pt" viewBox="0 0 1200.000000 1200.000000"
 preserveAspectRatio="xMidYMid meet">
<metadata>
Created by potrace 1.10, written by Peter Selinger 2001-2011
</metadata>
<g transform="translate(0.000000,1200.000000) scale(0.100000,-0.100000)"
fill="#000000" stroke="none">
<path d="M540 11491 c0 -5 -9 -13 -20 -16 -43 -14 -9 -115 39 -115 8 0 25 -12
38 -26 23 -25 23 -27 7 -45 -18 -20 -74 -27 -74 -9 0 6 -7 10 -15 10 -8 0 -15
-6 -15 -13 0 -23 23 -37 62 -37 29 0 44 7 65 30 32 37 38 37 55 3 12 -24 19
-28 57 -28 28 0 46 5 49 14 3 10 -3 11 -27 6 -48 -10 -85 26 -40 40 l21 7 -21
15 c-17 11 -19 18 -11 33 13 25 13 30 -5 30 -9 0 -20 -11 -25 -25 -15 -39 -36
-41 -66 -6 -14 17 -31 31 -38 31 -18 0 -46 33 -46 54 0 22 28 32 52 17 18 -11
38 -7 38 8 0 9 -45 31 -65 31 -8 0 -15 -4 -15 -9z"/>
<path d="M1317 11494 c-9 -16 -8 -232 2 -239 15 -9 23 32 23 119 0 79 -13 139
-25 120z"/>
<path d="M1698 11479 c-15 -9 -18 -25 -18 -112 0 -67 4 -107 12 -115 7 -7 36
-12 65 -12 47 0 56 4 88 35 31 32 35 41 35 88 0 42 -6 58 -28 85 -23 28 -35
33 -82 37 -30 2 -63 -1 -72 -6z m100 -25 c28 -8 52 -52 52 -95 0 -45 -43 -89
-86 -89 -43 0 -50 13 -57 95 -4 57 -2 71 11 82 19 14 45 16 80 7z"/>
<path d="M2130 11475 c-20 -24 0 -45 41 -45 34 0 39 -3 39 -23 0 -13 -7 -32
-15 -43 -8 -10 -15 -26 -15 -35 0 -9 -7 -22 -15 -29 -8 -7 -15 -23 -15 -36 0
-19 5 -24 25 -24 22 0 30 11 61 78 20 42 43 91 51 108 27 53 14 64 -71 63 -48
-1 -79 -5 -86 -14z"/>
<path d="M2361 11473 c-30 -25 -32 -67 -4 -71 14 -2 26 4 33 17 14 27 47 27
55 1 6 -20 -21 -62 -92 -140 -13 -13 -19 -28 -14 -33 4 -4 41 -7 82 -5 68 3
74 5 77 26 2 13 -2 22 -10 22 -38 1 -40 17 -9 60 38 52 39 77 6 113 -31 32
-90 37 -124 10z"/>
<path d="M2550 11475 c-19 -22 5 -45 46 -45 44 0 45 -20 4 -97 -38 -70 -39
-93 -5 -93 22 0 30 11 61 78 20 42 43 91 51 108 27 53 14 64 -70 64 -54 0 -78
-4 -87 -15z"/>
<path d="M2780 11470 c-23 -23 -26 -51 -8 -80 10 -15 9 -22 -5 -38 -19 -21
-22 -54 -7 -82 21 -39 114 -44 156 -9 19 16 18 64 -2 95 -13 19 -14 28 -5 37
19 19 13 64 -11 81 -32 23 -94 20 -118 -4z m85 -45 c0 -22 -31 -33 -47 -17
-17 17 -1 44 24 40 15 -2 23 -10 23 -23z m0 -105 c0 -18 -6 -26 -23 -28 -27
-4 -40 22 -22 44 19 22 45 13 45 -16z"/>
<path d="M1599 11468 c-1 -1 -3 -47 -4 -100 -2 -73 1 -100 11 -109 21 -17 25
5 22 111 -2 64 -7 95 -15 98 -7 2 -14 2 -14 0z"/>
<path d="M856 11373 c-32 -34 -33 -64 -4 -103 18 -25 29 -30 62 -30 64 0 71
10 68 82 -2 35 -4 63 -5 64 -1 1 -23 4 -49 8 -42 6 -49 4 -72 -21z m94 -22 c5
-11 7 -33 4 -50 -5 -25 -12 -31 -32 -31 -30 0 -62 26 -62 51 0 20 36 49 62 49
9 0 22 -9 28 -19z"/>
<path d="M1187 11393 c-36 -9 -49 -91 -21 -131 16 -23 77 -32 88 -13 7 10 -16
21 -43 21 -10 0 -23 11 -29 24 -15 33 5 70 41 74 16 2 27 9 24 15 -4 13 -32
18 -60 10z"/>
<path d="M1389 11390 c-11 -7 -10 -12 4 -28 9 -10 17 -26 17 -35 0 -25 22 -67
31 -61 13 7 11 69 -2 98 -14 29 -30 38 -50 26z"/>
<path d="M740 11381 c0 -5 5 -11 12 -13 6 -2 12 -15 13 -29 2 -31 29 -31 33 0
3 15 -3 30 -14 38 -21 15 -44 17 -44 4z"/>
<path d="M1047 11383 c-9 -8 -9 -96 -1 -117 11 -29 24 -5 24 45 0 35 4 51 15
55 8 4 12 10 9 15 -6 11 -38 12 -47 2z"/>
<path d="M1940 11255 c0 -9 5 -15 11 -13 6 2 11 8 11 13 0 5 -5 11 -11 13 -6
2 -11 -4 -11 -13z"/>
<path d="M2310 9795 c-8 -2 -61 -9 -117 -15 -125 -15 -291 -56 -403 -100 -30
-12 -66 -25 -80 -30 -35 -11 -259 -128 -295 -154 -16 -11 -37 -25 -47 -31
-156 -91 -433 -348 -555 -515 -38 -52 -72 -102 -76 -110 -4 -8 -21 -37 -37
-65 -92 -152 -165 -346 -214 -571 -22 -97 -22 -372 -1 -463 42 -180 111 -319
235 -470 29 -36 76 -71 93 -71 5 0 120 164 142 202 34 57 150 216 205 282 249
296 507 551 735 727 39 29 72 56 75 59 49 57 707 490 840 553 8 4 29 15 45 25
59 36 292 161 398 214 74 37 78 41 72 66 -11 46 -120 164 -225 246 -52 40
-234 136 -259 136 -9 0 -21 4 -27 9 -35 33 -433 94 -504 76z"/>
<path d="M9540 9793 c-299 -34 -447 -82 -624 -203 -70 -48 -191 -165 -234
-227 -37 -54 -31 -65 61 -109 84 -41 470 -239 497 -255 70 -41 172 -99 176
-99 2 0 23 -12 47 -27 23 -15 58 -36 77 -48 318 -183 747 -539 965 -801 27
-32 70 -82 95 -110 25 -27 74 -86 110 -130 35 -43 67 -81 70 -84 3 -3 35 -43
70 -90 36 -47 70 -90 75 -96 6 -6 24 -29 40 -50 17 -21 50 -64 75 -95 25 -32
64 -82 88 -113 24 -31 49 -56 56 -56 19 0 122 113 169 182 87 132 131 251 162
443 26 158 20 279 -21 475 -90 419 -408 849 -848 1143 -114 77 -314 185 -391
213 -202 73 -332 107 -470 123 -105 12 -209 18 -245 14z"/>
<path d="M3570 6205 c-104 -15 -184 -33 -227 -51 -17 -8 -36 -14 -43 -14 -13
0 -150 -54 -190 -74 -463 -240 -792 -624 -951 -1111 -97 -297 -105 -654 -19
-905 53 -154 192 -379 282 -458 17 -15 43 -38 57 -51 82 -75 254 -162 401
-204 258 -74 559 -58 820 43 30 12 66 25 80 30 28 9 181 87 226 116 165 103
282 201 411 343 232 257 365 517 450 881 25 108 25 451 -1 565 -52 236 -124
380 -284 563 -224 256 -621 384 -1012 327z m640 -690 c112 -57 164 -142 164
-270 0 -75 -3 -86 -36 -145 -91 -162 -309 -201 -449 -80 -54 46 -82 94 -99
173 -29 129 44 269 170 326 68 31 185 29 250 -4z"/>
<path d="M8075 6209 c-338 -59 -559 -180 -725 -399 -126 -167 -186 -300 -231
-515 -19 -88 -21 -122 -16 -290 3 -104 10 -206 15 -225 6 -19 18 -71 27 -115
9 -44 22 -96 30 -115 7 -19 26 -66 41 -105 38 -101 62 -149 118 -245 110 -188
175 -272 314 -408 82 -80 277 -235 337 -268 309 -170 525 -234 785 -234 193 0
348 34 530 117 98 45 263 171 325 251 111 139 150 207 203 347 38 102 50 155
68 285 25 188 10 425 -37 585 -11 39 -25 88 -30 110 -6 22 -14 44 -20 50 -5 5
-9 15 -9 22 0 41 -143 303 -226 413 -22 30 -45 62 -50 71 -35 63 -248 265
-384 366 -60 44 -275 173 -289 173 -5 0 -35 12 -67 26 -202 90 -520 136 -709
103z m-49 -686 c88 -40 127 -83 166 -183 43 -110 1 -252 -97 -327 -163 -126
-389 -61 -464 133 -28 73 -27 130 4 207 28 70 84 131 150 165 53 28 185 30
241 5z"/>
<path d="M5840 3740 c-374 -42 -624 -233 -549 -423 10 -26 28 -58 39 -69 11
-12 20 -24 20 -28 0 -3 21 -22 48 -41 87 -65 208 -112 357 -139 98 -17 108
-26 128 -108 55 -226 -39 -425 -250 -527 -176 -86 -366 -82 -558 13 -75 37
-178 133 -207 192 -15 30 -34 67 -42 82 l-15 28 -33 -20 c-18 -10 -49 -32 -68
-48 -38 -33 -39 -22 9 -119 42 -87 193 -226 299 -278 139 -67 194 -78 362 -78
134 1 151 3 231 30 129 45 211 95 300 184 43 43 83 79 88 79 5 0 21 -15 35
-32 94 -117 212 -191 391 -243 92 -27 318 -25 405 5 155 52 296 140 378 236
46 54 106 169 98 189 -6 17 -86 72 -110 77 -10 1 -22 -4 -26 -12 -4 -8 -15
-32 -25 -53 -39 -79 -148 -181 -245 -228 -186 -90 -359 -89 -545 0 -95 46
-173 116 -220 196 -29 49 -29 52 -29 200 0 204 0 204 124 228 121 23 209 46
237 64 12 7 31 13 42 13 11 0 23 5 26 11 4 5 17 14 28 19 44 18 137 101 159
142 32 63 31 150 -3 203 -73 113 -195 182 -424 239 -72 18 -348 28 -455 16z"/>
</g>
</svg>
