<?xml version="1.0" standalone="no"?>
<!DOCTYPE svg PUBLIC "-//W3C//DTD SVG 20010904//EN"
 "http://www.w3.org/TR/2001/REC-SVG-20010904/DTD/svg10.dtd">
<svg version="1.0" xmlns="http://www.w3.org/2000/svg"
 width="900.000000pt" height="900.000000pt" viewBox="0 0 900.000000 900.000000"
 preserveAspectRatio="xMidYMid meet">
<metadata>
Created by potrace 1.10, written by Peter Selinger 2001-2011
</metadata>
<g transform="translate(0.000000,900.000000) scale(0.100000,-0.100000)"
fill="#000000" stroke="none">
<path d="M2337 8414 c-3 -3 -45 -7 -94 -9 -91 -3 -188 -16 -245 -33 -191 -58
-307 -102 -378 -142 -8 -5 -33 -19 -55 -31 -124 -67 -307 -210 -408 -319 -116
-125 -223 -282 -295 -435 -18 -38 -40 -83 -48 -98 -8 -16 -14 -35 -14 -42 0
-8 -6 -29 -14 -47 -13 -31 -29 -83 -56 -188 -7 -25 -16 -99 -21 -165 -4 -66
-11 -138 -15 -160 -8 -45 11 -278 27 -340 6 -22 14 -60 18 -85 4 -25 13 -55
19 -67 7 -12 12 -32 12 -45 0 -13 7 -32 15 -42 8 -11 15 -28 15 -39 0 -17 15
-52 42 -97 5 -8 18 -35 29 -60 40 -90 55 -117 124 -220 64 -95 186 -228 322
-351 51 -46 142 -108 212 -144 l53 -28 -23 -19 c-13 -10 -35 -21 -49 -24 -57
-15 -221 -99 -314 -162 -119 -79 -266 -222 -352 -342 -56 -77 -114 -170 -130
-210 -4 -8 -17 -38 -30 -65 -45 -101 -81 -229 -106 -380 -10 -63 -13 -409 -13
-1665 0 -1493 1 -1587 18 -1622 9 -21 21 -38 26 -38 5 0 18 -17 28 -37 15 -28
35 -46 79 -68 l59 -30 1555 0 1555 0 57 28 c32 16 74 47 93 70 56 65 68 123
61 290 -3 78 -5 149 -5 157 0 8 3 131 5 273 4 189 8 257 17 257 13 0 20 -10
112 -155 32 -49 68 -101 80 -115 13 -14 26 -36 30 -48 31 -104 322 -430 430
-482 23 -11 51 -30 61 -41 11 -12 28 -25 39 -30 11 -5 35 -18 52 -29 149 -90
433 -168 623 -172 117 -2 2008 -1 2070 2 204 7 394 93 551 249 170 171 245
350 248 595 2 177 -43 329 -143 479 -42 63 -139 163 -178 183 -15 8 -28 18
-28 23 0 13 -109 75 -186 106 -160 64 -165 64 -1019 64 -426 0 -779 2 -785 6
-16 10 -14 634 3 640 6 3 469 6 1027 8 l1015 2 67 33 c75 37 144 99 180 164
56 100 53 -3 53 1898 0 1670 -1 1757 -18 1805 -60 164 -180 259 -344 273 -62
5 -554 7 -1013 5 -36 0 -265 0 -510 0 -245 0 -470 0 -500 0 -30 0 -257 0 -505
1 -247 0 -470 0 -495 -1 -25 -1 -256 0 -515 3 -350 4 -471 8 -477 17 -4 7 -8
30 -8 52 0 48 -80 264 -120 325 -6 8 -14 25 -20 38 -19 44 -125 197 -167 240
-24 24 -43 47 -43 52 0 14 -154 162 -234 224 -130 102 -241 169 -296 181 -16
4 -30 10 -30 14 0 7 -28 20 -135 66 -16 7 -57 20 -90 30 -33 9 -75 22 -94 27
-33 10 -65 15 -226 38 -78 10 -228 13 -238 4z m212 -278 c145 -22 152 -23 211
-40 30 -9 88 -24 128 -35 41 -11 81 -26 90 -34 10 -7 46 -28 82 -46 240 -122
470 -345 587 -572 15 -27 24 -52 21 -55 -3 -3 -62 0 -130 7 -68 6 -149 9 -179
6 -30 -4 -108 -10 -174 -16 -152 -12 -249 -36 -373 -92 -272 -124 -419 -372
-412 -697 3 -132 -23 -345 -56 -451 -8 -25 -14 -51 -14 -59 0 -8 -21 -58 -47
-111 -106 -215 -294 -332 -606 -376 -93 -13 -100 -13 -145 7 -93 40 -322 313
-406 484 -17 32 -38 70 -48 83 -10 13 -18 32 -18 43 0 10 -9 47 -21 81 -47
137 -69 282 -68 452 0 88 4 180 10 205 5 25 14 79 19 120 5 41 21 102 36 135
130 289 202 402 354 553 112 111 218 187 355 256 210 106 219 110 410 136 39
6 93 14 120 19 77 13 169 12 274 -3z m1166 -1056 c76 -15 85 -23 85 -74 1 -22
7 -52 15 -66 21 -37 21 -386 0 -437 -8 -19 -15 -53 -15 -75 0 -21 -7 -55 -15
-75 -8 -19 -15 -44 -15 -54 0 -10 -7 -35 -16 -56 -9 -21 -22 -51 -29 -68 -158
-370 -417 -632 -775 -782 -158 -66 -262 -90 -450 -103 -160 -11 -295 -8 -365
8 -62 15 -158 41 -162 45 -7 8 35 34 92 57 282 113 478 367 550 715 24 119 44
332 46 490 1 129 3 144 27 195 34 72 148 186 232 232 44 24 84 38 125 42 33 4
83 11 110 16 69 12 487 5 560 -10z m4321 -240 c51 -11 80 -32 103 -77 13 -26
15 -169 2 -178 -19 -11 -3999 -7 -4021 5 -18 10 -20 21 -20 125 0 80 4 116 13
122 21 14 605 18 2262 16 1095 -2 1626 -6 1661 -13z m106 -528 c8 -8 10 -584
8 -2598 l0 -441 -32 -37 c-22 -25 -46 -40 -73 -46 -46 -11 -1713 -12 -2383 -2
-428 7 -444 8 -458 27 -9 11 -18 32 -21 47 -3 15 -12 33 -19 39 -8 6 -14 15
-14 20 0 5 -10 26 -23 47 -13 20 -37 62 -54 92 -86 159 -214 378 -232 399 -12
13 -21 30 -21 38 0 14 -53 116 -97 185 -13 21 -23 40 -23 43 0 2 -19 37 -43
77 -24 40 -46 80 -50 88 -4 8 -17 31 -28 50 -12 19 -31 53 -42 75 -12 22 -33
56 -47 75 -14 19 -34 53 -45 75 -38 77 -134 203 -222 291 -73 73 -200 174
-218 174 -8 0 -29 12 -47 28 -35 29 -65 49 -85 57 -7 3 -19 7 -25 10 -7 3 -20
9 -28 13 -30 18 -96 45 -200 82 -19 7 -57 16 -85 20 -27 4 -63 13 -78 19 -16
6 -48 11 -72 11 -24 0 -46 4 -49 9 -3 5 13 21 37 36 219 144 476 446 548 645
7 19 29 69 50 110 20 41 42 93 49 115 7 22 20 60 29 85 l17 45 79 5 c141 9
3988 1 3997 -8z m-4864 -1306 c133 -11 317 -59 423 -110 29 -14 60 -26 70 -26
9 0 27 -10 40 -23 13 -13 47 -39 74 -57 78 -52 245 -227 295 -309 25 -40 57
-87 72 -105 15 -18 30 -45 34 -60 3 -15 44 -92 89 -171 45 -79 85 -150 89
-157 3 -7 15 -26 26 -43 11 -16 26 -43 34 -60 8 -16 29 -52 45 -80 17 -27 35
-60 41 -72 5 -13 14 -23 18 -23 5 0 17 -21 27 -47 10 -27 28 -64 41 -84 12
-20 67 -116 122 -215 55 -98 109 -197 122 -219 12 -22 33 -54 46 -72 13 -17
24 -39 24 -48 0 -9 8 -29 18 -43 17 -24 143 -243 218 -379 15 -26 44 -75 65
-108 21 -33 51 -85 67 -115 120 -234 325 -371 556 -372 50 0 272 -2 493 -4
470 -6 426 9 424 -138 -6 -332 -5 -929 2 -970 5 -29 5 -52 -1 -58 -6 -6 -279
-9 -683 -9 -633 1 -680 2 -774 21 -137 27 -206 50 -326 108 -36 18 -71 32 -78
32 -7 0 -22 10 -34 23 -12 13 -49 44 -83 69 -84 64 -189 179 -260 284 -32 49
-61 93 -63 99 -2 5 -17 23 -33 39 -15 17 -28 37 -28 47 0 9 -7 22 -15 29 -8 7
-15 16 -15 21 0 5 -13 28 -29 51 -16 24 -50 76 -75 116 -60 95 -131 205 -173
269 -30 45 -42 55 -101 77 -58 22 -72 24 -106 15 -88 -24 -137 -95 -137 -196
0 -32 -3 -262 -5 -511 -4 -307 -2 -470 6 -504 8 -40 8 -55 -2 -70 -13 -19 -44
-19 -1507 -19 -822 1 -1496 3 -1498 5 -2 2 -4 705 -4 1562 1 1507 1 1562 20
1649 28 127 38 160 74 245 106 251 292 457 527 582 115 62 246 103 430 135 49
9 1296 8 1398 -1z m2515 -2118 c10 -18 12 -80 9 -285 -3 -224 -6 -262 -19
-267 -24 -10 -102 60 -142 127 -20 32 -48 75 -63 94 -16 20 -28 41 -28 47 0 6
-6 22 -13 36 -47 89 -103 189 -119 213 -38 54 -27 57 176 57 182 0 186 0 199
-22z m1927 -907 c146 -43 212 -88 310 -211 106 -134 145 -329 100 -499 -49
-183 -135 -299 -272 -365 -141 -68 -190 -75 -480 -76 -150 0 -259 4 -263 9 -5
9 -16 196 -15 246 1 11 3 216 6 455 2 239 7 441 9 448 3 9 67 12 272 12 234 0
276 -2 333 -19z"/>
<path d="M5496 6050 c-61 -19 -76 -46 -122 -232 -14 -58 -30 -124 -60 -240 -8
-35 -22 -86 -30 -114 -8 -28 -14 -64 -14 -80 0 -16 -13 -69 -29 -119 -16 -49
-37 -119 -46 -155 -9 -36 -23 -88 -31 -116 -8 -28 -14 -76 -14 -107 0 -45 5
-61 25 -86 71 -84 193 -52 227 61 21 65 31 106 113 436 36 145 65 278 65 297
0 18 9 54 19 78 11 25 31 92 45 149 20 82 24 111 16 139 -19 69 -94 109 -164
89z"/>
<path d="M4738 5728 c-138 -92 -322 -229 -343 -257 -10 -13 -20 -46 -23 -73
-4 -41 -1 -53 19 -74 41 -44 437 -303 474 -310 43 -8 90 18 123 67 19 27 23
43 19 77 -6 55 -27 78 -154 163 -56 38 -104 72 -107 77 -8 13 25 40 124 105
119 77 135 96 135 160 0 84 -44 127 -129 127 -36 0 -58 -10 -138 -62z"/>
<path d="M5865 5778 c-70 -40 -86 -138 -32 -196 12 -13 65 -52 117 -86 120
-80 129 -89 98 -111 -31 -22 -118 -83 -178 -125 -97 -68 -93 -182 8 -234 37
-19 80 -11 124 23 13 10 50 33 83 51 96 52 298 187 328 218 42 43 45 89 11
147 -24 41 -55 66 -236 186 -195 130 -212 139 -256 139 -26 0 -56 -6 -67 -12z"/>
<path d="M4943 4467 c-20 -13 -39 -39 -49 -64 -16 -40 -16 -46 0 -88 11 -28
29 -51 50 -64 31 -19 48 -20 646 -18 570 2 618 3 651 20 39 20 55 46 65 108 8
49 -8 82 -51 109 -31 19 -53 20 -656 19 -622 -1 -624 -1 -656 -22z"/>
<path d="M6650 4474 c-86 -54 -84 -182 3 -231 16 -9 166 -12 582 -12 529 -1
562 1 591 18 32 20 64 74 64 111 0 37 -30 89 -64 109 -30 19 -54 20 -591 20
-492 0 -563 -1 -585 -15z"/>
<path d="M5352 3954 c-33 -14 -67 -59 -78 -102 -9 -31 21 -95 56 -121 29 -20
33 -21 798 -20 l770 0 34 33 c37 36 51 77 41 117 -8 33 -19 45 -70 79 l-44 30
-737 -1 c-607 -1 -743 -4 -770 -15z"/>
</g>
</svg>
