<?xml version="1.0" standalone="no"?>
<!DOCTYPE svg PUBLIC "-//W3C//DTD SVG 20010904//EN"
 "http://www.w3.org/TR/2001/REC-SVG-20010904/DTD/svg10.dtd">
<svg version="1.0" xmlns="http://www.w3.org/2000/svg"
 width="900.000000pt" height="717.000000pt" viewBox="0 0 900.000000 717.000000"
 preserveAspectRatio="xMidYMid meet">
<metadata>
Created by potrace 1.10, written by Peter Selinger 2001-2011
</metadata>
<g transform="translate(0.000000,717.000000) scale(0.100000,-0.100000)"
fill="#000000" stroke="none">
<path d="M4897 7156 c-4 -9 -27 -17 -64 -21 -103 -10 -342 -53 -453 -80 -30
-7 -91 -21 -135 -30 -76 -17 -123 -28 -225 -56 -25 -7 -61 -15 -80 -19 -19 -4
-98 -24 -175 -45 -77 -20 -156 -41 -175 -45 -19 -4 -53 -12 -75 -18 -22 -6
-71 -18 -110 -27 -38 -9 -88 -21 -109 -27 -21 -5 -60 -13 -85 -18 -159 -29
-293 -59 -406 -90 -83 -23 -197 -51 -300 -75 -57 -13 -98 -21 -295 -60 -47 -9
-114 -23 -150 -31 -36 -8 -74 -14 -85 -14 -11 0 -51 -7 -90 -15 -38 -9 -104
-22 -145 -31 -90 -18 -193 -40 -275 -59 -33 -7 -98 -21 -145 -30 -47 -9 -112
-23 -145 -30 -33 -8 -100 -21 -150 -30 -49 -9 -117 -23 -150 -30 -33 -8 -98
-21 -145 -30 -126 -25 -243 -52 -390 -91 -167 -43 -168 -44 -256 -130 -58 -56
-84 -88 -84 -104 0 -13 11 -55 24 -94 29 -88 78 -249 101 -336 10 -36 23 -85
30 -110 7 -25 20 -76 29 -115 23 -96 45 -181 62 -241 8 -28 14 -59 14 -69 0
-10 6 -41 14 -69 8 -28 22 -81 30 -118 36 -156 48 -206 61 -258 8 -30 21 -86
30 -125 9 -38 23 -95 30 -125 8 -30 21 -86 30 -125 9 -38 22 -95 30 -125 18
-74 61 -260 90 -390 9 -41 23 -100 30 -130 8 -30 21 -89 30 -130 9 -41 23
-100 30 -130 8 -30 21 -86 30 -125 9 -38 23 -99 31 -135 8 -36 21 -90 29 -120
7 -30 21 -89 30 -130 9 -41 22 -102 29 -135 8 -33 21 -96 31 -140 59 -280 93
-416 150 -600 18 -59 42 -142 60 -210 94 -359 151 -450 339 -543 85 -42 101
-49 286 -112 154 -52 299 -109 359 -140 15 -8 43 -21 214 -99 34 -15 92 -42
129 -60 37 -17 73 -31 79 -31 6 0 23 -6 37 -13 39 -20 82 -39 212 -92 108 -44
148 -60 333 -134 39 -16 108 -43 152 -61 44 -18 96 -38 115 -45 19 -7 163 -67
320 -133 312 -130 332 -138 429 -158 85 -18 316 -18 401 0 87 18 204 59 304
106 45 21 130 61 189 89 59 28 112 51 118 51 5 0 17 4 27 10 16 9 180 77 342
142 88 35 120 49 175 73 22 9 54 23 70 30 83 36 236 111 740 362 303 151 609
299 680 330 100 42 422 202 554 274 9 4 128 63 265 129 234 114 493 261 616
350 30 21 71 50 91 64 67 46 258 238 298 299 22 34 47 70 55 79 17 20 24 164
7 154 -5 -3 -20 9 -34 28 -66 86 -230 157 -557 242 -69 17 -133 35 -215 59
-214 62 -265 77 -300 89 -22 7 -67 21 -100 31 -33 10 -78 23 -100 30 -22 6
-67 20 -100 30 -202 59 -205 60 -540 195 -44 18 -96 38 -115 45 -19 7 -53 20
-75 28 -22 9 -65 23 -95 32 -30 10 -70 24 -88 31 -18 8 -39 14 -47 14 -26 0
-307 97 -405 139 -52 23 -112 53 -132 66 -33 22 -38 31 -38 63 0 20 -7 87 -15
147 -9 61 -23 160 -31 220 -20 150 -56 370 -90 550 -8 44 -22 116 -30 160 -8
44 -21 109 -29 145 -7 36 -21 103 -30 150 -9 47 -23 112 -30 145 -7 33 -20 94
-29 135 -23 110 -45 216 -61 290 -8 36 -22 99 -30 140 -9 41 -22 102 -30 135
-7 33 -21 98 -30 145 -9 47 -23 114 -30 150 -28 139 -62 319 -89 475 -42 242
-45 256 -74 293 -15 20 -37 54 -47 76 -29 56 -78 92 -136 100 -33 5 -49 11
-49 21 0 22 -285 22 -293 1z m212 -176 c46 -5 92 -12 102 -15 22 -7 44 -46 58
-101 5 -22 17 -64 26 -94 9 -30 23 -77 30 -105 7 -27 30 -113 50 -190 21 -77
41 -158 46 -180 10 -51 35 -158 48 -210 5 -22 17 -76 26 -120 9 -44 23 -109
30 -145 8 -36 21 -105 30 -155 9 -49 22 -121 30 -160 7 -38 21 -117 30 -175 9
-58 20 -125 25 -150 5 -25 14 -85 20 -134 6 -49 13 -93 16 -97 2 -4 8 -45 14
-91 23 -200 61 -459 74 -513 3 -11 21 -87 41 -170 20 -82 40 -163 45 -180 5
-16 14 -57 19 -90 6 -33 15 -87 21 -120 5 -33 10 -83 10 -111 0 -90 9 -113 54
-142 64 -41 123 -72 200 -104 39 -16 80 -33 91 -38 11 -5 47 -18 80 -29 34
-11 72 -24 85 -29 14 -6 66 -25 115 -42 50 -18 104 -38 120 -45 17 -7 55 -22
85 -34 30 -12 64 -26 75 -31 11 -4 45 -18 75 -30 30 -11 64 -25 75 -30 19 -8
142 -57 260 -102 215 -83 576 -204 760 -254 33 -9 80 -22 105 -29 25 -7 79
-20 120 -30 315 -72 443 -120 522 -197 26 -26 56 -49 68 -53 28 -9 26 -20 -21
-79 -97 -124 -188 -204 -434 -384 -33 -24 -169 -102 -320 -184 -84 -45 -1085
-544 -1450 -723 -143 -70 -426 -209 -630 -310 -372 -183 -420 -205 -640 -290
-66 -26 -129 -51 -140 -55 -11 -5 -41 -18 -67 -29 -26 -12 -49 -21 -53 -21 -3
0 -33 -13 -68 -29 -299 -141 -304 -143 -412 -179 -110 -36 -193 -52 -271 -52
-103 0 -196 26 -529 145 -71 26 -142 50 -156 55 -14 4 -34 12 -45 18 -10 5
-37 17 -59 25 -43 16 -207 82 -240 97 -11 5 -92 38 -180 75 -88 36 -169 70
-180 75 -11 5 -36 15 -55 23 -207 86 -299 126 -375 162 -256 122 -326 154
-433 200 -18 8 -47 21 -65 29 -17 7 -72 30 -121 51 -48 20 -127 57 -175 82
-47 25 -122 65 -167 88 -114 59 -179 104 -197 134 -26 44 -54 141 -71 246 -50
302 -57 342 -91 470 -7 28 -20 82 -28 120 -23 100 -74 313 -104 430 -14 55
-29 118 -34 140 -8 38 -25 109 -48 200 -6 22 -31 126 -56 230 -25 105 -52 215
-60 245 -8 30 -21 87 -30 125 -9 39 -23 92 -31 119 -8 26 -14 55 -14 63 0 8
-7 38 -15 66 -17 56 -22 73 -54 187 -30 103 -52 178 -67 225 -7 22 -20 67 -29
100 -9 33 -23 78 -30 100 -17 53 -58 207 -91 340 -9 33 -19 74 -25 91 -5 16
-13 50 -19 75 -12 55 -35 147 -54 219 -20 75 -75 284 -91 346 -7 28 -18 69
-24 90 -47 157 -61 217 -61 264 0 63 24 103 75 129 25 12 49 19 55 16 5 -3 10
-42 10 -87 0 -44 7 -108 15 -142 16 -65 72 -247 86 -281 5 -11 13 -38 18 -60
15 -62 31 -126 41 -165 6 -19 26 -102 45 -185 19 -82 39 -164 45 -181 5 -16
14 -50 19 -75 6 -24 17 -73 26 -109 9 -36 22 -90 30 -120 39 -166 68 -280 80
-324 8 -26 15 -55 15 -63 0 -8 6 -35 14 -61 8 -26 28 -105 45 -177 75 -321 93
-394 106 -450 8 -33 21 -91 30 -130 9 -38 22 -97 30 -130 7 -33 21 -96 30
-140 9 -44 20 -96 26 -115 5 -19 21 -91 35 -160 33 -167 48 -230 74 -325 12
-44 26 -94 30 -111 4 -18 10 -36 14 -42 10 -17 48 -199 66 -317 42 -282 52
-317 116 -415 40 -63 56 -110 69 -214 8 -60 41 -96 105 -115 40 -12 370 -122
610 -203 47 -16 94 -33 105 -38 11 -5 47 -18 80 -29 33 -11 85 -30 115 -41 30
-12 69 -25 85 -30 17 -5 55 -18 85 -30 30 -11 89 -32 130 -46 41 -13 84 -28
95 -33 24 -10 55 -20 195 -66 58 -19 119 -39 135 -45 17 -6 82 -28 145 -50
150 -51 280 -97 305 -109 72 -35 369 -161 378 -161 5 0 23 -6 40 -14 90 -39
162 -51 297 -50 105 1 151 5 210 22 303 86 558 183 820 312 84 41 157 79 439
227 35 18 109 54 165 79 55 25 134 62 174 80 40 19 75 34 77 34 3 0 61 27 131
60 69 33 128 60 130 60 2 0 54 24 116 54 62 29 158 75 213 101 586 277 973
473 1195 607 124 74 279 162 345 195 66 33 143 73 170 89 28 16 67 38 88 49
54 28 97 79 97 116 0 59 -53 44 -130 -36 -56 -59 -93 -83 -244 -157 -203 -100
-308 -154 -366 -187 -30 -18 -68 -39 -85 -47 -16 -8 -43 -23 -60 -34 -16 -11
-43 -26 -60 -34 -16 -8 -61 -34 -100 -56 -38 -22 -83 -48 -100 -56 -16 -8 -79
-42 -140 -74 -118 -65 -398 -204 -480 -239 -27 -12 -59 -26 -70 -31 -11 -5
-47 -21 -80 -36 -33 -14 -105 -46 -160 -69 -210 -90 -286 -126 -670 -316 -165
-82 -336 -169 -380 -194 -44 -25 -105 -57 -135 -71 -30 -14 -63 -30 -72 -35
-10 -5 -46 -18 -80 -30 -35 -12 -67 -25 -73 -29 -5 -4 -21 -11 -35 -15 -14 -4
-52 -20 -85 -35 -33 -16 -78 -35 -100 -45 -22 -9 -49 -21 -59 -27 -11 -6 -31
-14 -45 -18 -14 -5 -51 -18 -81 -30 -30 -12 -84 -30 -120 -41 -36 -10 -78 -23
-95 -29 -51 -16 -221 -40 -282 -40 -126 0 -336 60 -558 160 -65 29 -212 87
-255 101 -14 4 -50 17 -80 29 -30 12 -73 27 -95 35 -60 20 -199 69 -295 105
-47 17 -116 42 -155 55 -38 13 -115 40 -170 60 -55 20 -111 40 -125 45 -14 5
-50 18 -80 30 -30 12 -68 26 -85 31 -16 5 -39 13 -50 18 -28 12 -259 95 -320
115 -27 8 -97 29 -155 46 -117 35 -215 66 -245 79 -132 55 -150 75 -142 156 5
51 3 59 -30 107 -68 98 -100 189 -147 413 -31 148 -70 314 -102 430 -9 33 -22
85 -29 115 -8 30 -36 143 -63 250 -56 224 -106 433 -168 700 -9 36 -22 87 -30
114 -8 26 -14 56 -14 66 0 10 -13 69 -29 131 -15 63 -36 150 -46 194 -10 44
-21 91 -26 105 -4 14 -11 41 -14 60 -8 42 -60 265 -79 335 -7 28 -21 84 -31
125 -9 41 -23 98 -31 125 -18 66 -69 280 -89 375 -9 41 -22 98 -30 125 -7 28
-22 88 -34 135 -11 47 -27 108 -36 135 -28 93 -47 160 -57 200 -14 54 -14 245
-1 270 8 15 33 25 95 38 45 10 110 24 143 32 33 7 83 18 110 24 28 5 91 19
140 31 50 11 122 27 160 36 39 8 97 21 130 29 58 13 128 28 265 58 36 8 101
22 145 32 44 9 112 23 150 32 39 8 99 21 135 28 36 7 101 21 145 30 79 16 143
29 300 60 44 8 112 22 150 30 39 9 79 15 90 15 11 0 52 7 90 15 39 9 104 23
145 32 100 20 194 42 255 57 81 21 148 38 185 46 19 5 71 18 115 30 44 12 96
26 115 31 34 8 106 26 220 55 30 7 82 20 115 28 33 8 76 19 95 24 19 5 71 17
115 27 44 9 107 23 140 30 33 8 101 21 150 30 50 9 106 20 125 25 19 5 58 11
85 15 28 3 93 13 145 21 166 25 307 29 439 14z"/>
<path d="M4680 6785 c-25 -7 -67 -17 -95 -23 -27 -6 -90 -21 -140 -32 -49 -12
-119 -28 -155 -36 -36 -9 -87 -22 -115 -29 -48 -12 -179 -44 -295 -71 -30 -7
-107 -26 -170 -43 -63 -16 -168 -43 -233 -60 -65 -17 -122 -33 -127 -36 -5 -3
-28 -9 -52 -14 -24 -5 -65 -16 -93 -24 -27 -8 -90 -27 -140 -41 -126 -36 -212
-63 -414 -128 -19 -6 -78 -22 -130 -35 -92 -24 -119 -31 -276 -68 -158 -38
-183 -44 -240 -58 -52 -13 -119 -31 -250 -68 -51 -14 -128 -37 -180 -54 -44
-14 -144 -43 -255 -75 -19 -5 -75 -19 -125 -30 -156 -36 -215 -54 -291 -92
-12 -6 -43 -30 -69 -54 l-48 -44 6 -92 c4 -51 14 -124 23 -163 26 -117 65
-267 89 -340 26 -80 43 -143 74 -270 17 -72 36 -146 41 -165 5 -19 19 -75 30
-125 12 -49 27 -112 34 -140 17 -65 36 -141 47 -185 23 -98 40 -166 69 -275
18 -66 39 -145 46 -175 7 -30 20 -80 28 -110 33 -124 64 -250 80 -325 44 -204
70 -335 91 -450 41 -223 86 -379 141 -489 62 -124 150 -153 307 -101 63 20
266 101 342 135 11 5 49 19 84 31 35 12 75 28 90 35 14 8 31 14 38 14 7 0 27
6 45 14 18 8 53 22 78 31 25 10 59 24 77 31 17 8 38 14 46 14 9 0 18 4 22 9 3
5 20 13 37 17 18 3 39 10 48 15 8 5 58 25 110 44 99 38 155 59 205 80 17 7 53
21 80 31 28 10 61 24 75 31 14 7 31 13 38 13 7 0 20 4 30 10 30 16 111 50 121
50 5 0 22 6 38 14 35 18 57 27 168 71 50 20 99 40 110 45 11 5 49 19 85 31 36
12 70 25 75 29 6 4 42 17 80 29 39 12 79 26 90 31 11 5 49 19 85 30 36 12 74
25 85 30 11 5 49 19 85 31 84 27 229 79 255 90 20 9 83 29 260 84 281 88 368
120 478 176 136 69 203 128 232 206 20 51 18 65 -25 248 -10 44 -26 121 -35
170 -9 50 -21 115 -27 145 -6 30 -14 82 -18 115 -17 129 -40 288 -45 294 -2 4
-9 50 -14 102 -6 52 -17 137 -25 189 -8 52 -22 145 -30 205 -9 61 -23 148 -31
195 -7 47 -21 126 -29 175 -8 50 -22 124 -31 165 -24 116 -44 218 -56 295 -37
238 -49 304 -58 328 -6 16 -11 37 -11 48 0 10 -14 49 -31 86 -98 211 -263 308
-439 258z m211 -101 c98 -49 160 -164 199 -369 4 -22 18 -83 29 -135 12 -52
26 -117 31 -145 6 -27 19 -93 30 -145 12 -52 25 -120 30 -150 5 -30 13 -77 18
-105 29 -144 65 -355 117 -695 9 -58 22 -143 31 -190 8 -47 14 -96 14 -110 0
-14 6 -61 14 -105 8 -44 22 -134 31 -200 20 -148 41 -262 62 -340 9 -33 16
-94 17 -137 1 -93 -10 -112 -108 -179 -116 -79 -276 -154 -446 -209 -58 -18
-157 -51 -220 -72 -190 -64 -322 -107 -375 -124 -27 -9 -124 -43 -215 -76
-163 -59 -200 -73 -282 -104 -24 -9 -60 -22 -80 -30 -94 -35 -122 -46 -273
-109 -139 -59 -210 -90 -290 -125 -53 -24 -173 -73 -195 -80 -14 -5 -50 -18
-80 -30 -83 -32 -186 -69 -280 -100 -186 -63 -400 -143 -485 -181 -41 -18
-175 -62 -285 -92 -30 -9 -82 -19 -116 -23 -58 -6 -62 -5 -87 22 -29 31 -102
173 -113 219 -3 17 -12 50 -19 75 -15 52 -36 153 -60 290 -9 52 -23 122 -31
155 -30 119 -47 181 -59 225 -7 25 -20 70 -28 100 -40 146 -49 179 -63 224 -7
26 -14 55 -14 63 0 8 -6 35 -14 61 -8 26 -22 83 -31 127 -26 123 -45 205 -60
265 -8 30 -23 91 -34 135 -11 44 -36 143 -56 220 -21 77 -41 156 -45 175 -5
19 -25 98 -45 175 -21 77 -41 158 -45 180 -4 22 -12 58 -18 80 -20 73 -60 273
-83 418 -12 76 -11 78 11 102 13 14 28 25 34 25 6 0 31 18 55 40 24 21 57 42
75 45 17 4 49 12 71 20 22 7 92 28 155 45 63 18 133 38 155 45 80 25 142 43
255 75 63 18 158 45 210 60 88 25 136 38 280 76 30 8 78 21 105 28 28 7 79 21
115 30 36 10 88 24 115 31 28 8 75 20 105 28 30 8 84 22 120 32 36 9 88 23
115 30 82 21 177 47 225 60 25 7 74 20 110 30 62 16 89 24 205 58 165 47 353
103 410 121 139 44 228 70 417 120 102 28 154 39 208 46 30 5 63 11 72 15 30
12 200 23 273 18 45 -4 87 -14 116 -29z"/>
<path d="M1127 5414 c-31 -35 -39 -71 -20 -89 8 -8 20 -15 28 -15 19 0 55 66
55 101 0 38 -31 40 -63 3z"/>
<path d="M1236 5259 c-30 -23 -32 -37 -12 -64 14 -19 16 -18 50 19 29 30 34
41 25 52 -16 19 -32 18 -63 -7z"/>
<path d="M4594 4025 c-20 -31 -12 -55 19 -55 30 0 54 44 36 66 -17 21 -37 17
-55 -11z"/>
<path d="M4765 3955 c-42 -41 -26 -75 28 -61 30 7 52 52 36 72 -17 20 -37 17
-64 -11z"/>
<path d="M5565 3434 c-36 -37 11 -86 51 -54 19 16 18 56 -2 64 -24 9 -31 8
-49 -10z"/>
<path d="M6075 3233 c-37 -5 -112 -32 -145 -52 -62 -37 -150 -152 -150 -195 0
-27 73 -93 118 -106 100 -31 258 46 313 152 55 106 -20 217 -136 201z m63
-111 c23 -29 7 -80 -35 -118 -90 -80 -233 -74 -233 9 0 49 67 108 145 128 43
11 108 1 123 -19z"/>
<path d="M4970 3153 c-41 -15 -46 -67 -7 -77 33 -8 69 20 65 52 -3 27 -26 37
-58 25z"/>
<path d="M6410 2996 c-71 -16 -112 -38 -160 -86 -46 -46 -57 -79 -40 -120 21
-51 64 -74 139 -74 89 -1 172 28 230 80 42 38 46 46 46 87 0 45 -24 85 -65
107 -30 16 -96 18 -150 6z m119 -101 c34 -34 -56 -104 -136 -105 -48 0 -89 16
-98 38 -8 21 36 64 83 79 46 15 131 9 151 -12z"/>
<path d="M5395 2931 c-51 -10 -149 -50 -201 -83 -32 -21 -45 -37 -58 -77 -21
-65 -21 -68 9 -107 36 -47 138 -94 206 -94 88 0 195 49 243 113 27 35 56 107
56 137 0 24 -45 77 -80 95 -35 18 -122 26 -175 16z m109 -86 c53 -22 63 -52
36 -104 -11 -23 -29 -45 -38 -48 -9 -3 -25 -13 -35 -22 -14 -12 -41 -16 -100
-16 -69 0 -88 4 -119 23 -58 36 -49 82 24 128 81 51 167 66 232 39z"/>
<path d="M7045 2813 c-37 -10 -123 -73 -129 -96 -21 -78 12 -133 95 -160 67
-22 107 -21 172 3 77 29 102 59 102 123 0 69 -26 97 -91 97 -31 0 -54 7 -71
20 -26 20 -40 22 -78 13z m26 -93 c10 -6 45 -14 76 -18 31 -4 58 -12 60 -18 2
-6 -5 -22 -16 -35 -17 -21 -27 -24 -84 -23 -67 1 -117 21 -117 47 0 16 37 57
51 57 6 0 19 -5 30 -10z"/>
<path d="M3945 2736 c-56 -18 -71 -27 -73 -44 -5 -33 21 -37 107 -17 76 18
120 40 121 61 1 30 -61 30 -155 0z"/>
<path d="M5790 2738 c-71 -31 -108 -53 -139 -81 -38 -36 -81 -100 -81 -120 0
-23 59 -75 106 -93 86 -33 225 -1 303 70 30 27 68 87 76 119 7 28 -30 79 -76
102 -33 18 -152 19 -189 3z m145 -94 c16 -25 16 -28 -2 -52 -11 -14 -36 -40
-57 -56 -33 -27 -45 -31 -101 -31 -56 0 -68 3 -90 25 l-25 25 24 36 c34 49 97
76 187 78 40 1 49 -3 64 -25z"/>
<path d="M4655 2663 c-105 -15 -241 -75 -302 -136 -37 -36 -43 -47 -43 -83 0
-38 5 -46 43 -76 62 -49 113 -69 193 -75 86 -7 134 12 214 84 95 86 126 202
70 266 -21 24 -30 27 -84 26 -34 -1 -74 -4 -91 -6z m99 -92 c27 -30 13 -91
-30 -135 -80 -82 -206 -100 -281 -39 -45 36 -51 57 -26 85 75 83 291 140 337
89z"/>
<path d="M6645 2637 c-61 -18 -145 -70 -194 -121 -42 -42 -45 -49 -44 -96 1
-90 55 -125 180 -118 62 3 92 11 147 37 126 60 204 172 145 210 -13 9 -42 30
-64 47 -39 29 -96 55 -119 53 -6 -1 -29 -6 -51 -12z m99 -98 c26 -11 50 -27
53 -35 13 -35 -112 -123 -199 -139 -61 -11 -107 26 -108 87 0 24 141 103 191
107 9 0 38 -8 63 -20z"/>
<path d="M7715 2611 c-22 -10 -48 -27 -58 -38 -17 -19 -17 -22 2 -64 25 -58
60 -89 109 -96 52 -7 106 19 143 70 38 53 38 88 -2 121 -26 22 -40 26 -92 25
-37 0 -78 -8 -102 -18z m125 -78 c12 -11 -20 -38 -46 -38 -22 0 -30 5 -32 22
-2 14 3 23 15 26 17 4 53 -1 63 -10z"/>
<path d="M7276 2513 c-44 -7 -103 -49 -122 -85 -9 -18 -23 -57 -29 -87 l-13
-54 31 -28 c42 -38 88 -59 130 -59 71 0 256 119 291 189 20 37 -2 81 -52 106
-37 18 -173 29 -236 18z m192 -85 c21 -18 14 -35 -34 -77 -46 -41 -135 -75
-177 -69 -32 5 -46 83 -20 110 44 43 193 67 231 36z"/>
<path d="M2949 2391 c-52 -11 -103 -43 -107 -69 -3 -20 1 -22 41 -22 52 0 123
28 150 58 34 38 4 50 -84 33z"/>
<path d="M3765 2365 c-144 -76 -235 -150 -235 -192 0 -68 111 -173 182 -173
38 0 148 38 205 71 77 44 168 132 187 180 39 97 -25 149 -181 149 -84 0 -95
-3 -158 -35z m238 -63 c23 -20 10 -49 -52 -112 -66 -67 -133 -100 -204 -100
-56 0 -112 28 -123 62 -11 35 98 120 201 156 40 14 158 10 178 -6z"/>
<path d="M5035 2370 c-114 -34 -188 -79 -227 -138 -41 -62 -12 -144 62 -182
136 -69 403 44 439 185 32 126 -95 188 -274 135z m168 -92 c50 -26 -41 -135
-136 -163 -63 -18 -108 -14 -156 16 -74 45 -8 133 119 160 41 8 147 0 173 -13z"/>
<path d="M6035 2310 c-119 -56 -150 -176 -59 -227 134 -77 377 60 325 184 -24
59 -178 84 -266 43z m178 -76 c3 -4 -1 -20 -9 -36 -39 -76 -210 -92 -202 -19
4 38 57 61 139 61 36 0 68 -3 72 -6z"/>
<path d="M6640 2233 c-52 -27 -144 -80 -205 -118 -60 -37 -119 -73 -130 -79
-11 -6 -39 -24 -62 -39 -24 -15 -45 -27 -47 -27 -2 0 -60 -33 -128 -74 -67
-40 -141 -83 -163 -95 -22 -12 -56 -31 -75 -42 -19 -12 -111 -66 -205 -121
-93 -55 -187 -111 -207 -124 -21 -13 -40 -24 -42 -24 -6 0 -460 -273 -556
-335 -93 -59 -100 -68 -93 -113 21 -128 157 -183 323 -131 78 24 209 86 305
144 112 68 387 219 620 340 126 66 220 117 285 155 28 16 53 30 55 30 10 0
316 187 390 238 183 126 345 264 345 294 0 10 -10 42 -21 69 -28 65 -78 88
-204 96 l-90 5 -95 -49z m250 -44 c51 -27 70 -44 70 -62 0 -35 -174 -184 -335
-289 -72 -47 -224 -138 -230 -138 -2 0 -49 -27 -105 -60 -56 -33 -103 -60
-105 -60 -3 0 -46 -25 -97 -56 -92 -56 -185 -104 -508 -264 -91 -44 -178 -90
-195 -100 -16 -11 -39 -24 -50 -30 -11 -6 -42 -24 -70 -40 -27 -17 -84 -47
-125 -68 -69 -33 -83 -37 -176 -40 -95 -4 -103 -2 -129 20 -22 19 -27 30 -22
50 7 28 82 89 162 133 28 15 121 70 207 121 87 52 160 94 163 94 3 0 185 108
404 240 220 132 402 240 406 240 3 0 22 10 43 23 20 13 69 41 107 62 39 21 93
50 120 65 358 196 346 190 390 184 22 -4 56 -15 75 -25z"/>
<path d="M3094 2094 c-32 -26 -75 -53 -93 -61 -51 -22 -135 -77 -163 -108 -32
-35 -63 -124 -55 -157 9 -33 59 -63 133 -78 128 -27 274 33 420 172 89 85 93
103 34 171 -23 25 -55 53 -73 63 -27 14 -120 44 -138 44 -3 0 -32 -21 -65 -46z
m195 -90 c17 -14 31 -33 31 -43 0 -29 -119 -135 -200 -179 -96 -51 -278 -26
-252 35 30 72 91 132 186 185 43 23 63 28 128 28 68 0 80 -3 107 -26z"/>
<path d="M4255 2095 c-138 -34 -295 -158 -279 -221 7 -27 66 -75 117 -96 167
-68 416 61 434 225 5 39 2 45 -23 63 -65 43 -152 53 -249 29z m191 -79 c8 -22
-32 -91 -73 -125 -74 -61 -199 -83 -263 -45 -49 29 -58 48 -35 75 30 33 91 69
154 89 70 23 209 27 217 6z"/>
<path d="M2030 2069 c-22 -40 35 -69 96 -49 35 12 60 43 49 60 -3 6 -35 10
-70 10 -55 0 -66 -3 -75 -21z"/>
<path d="M5430 2073 c-71 -25 -150 -82 -181 -132 -47 -73 -35 -143 34 -195 41
-32 59 -32 139 -5 186 64 275 153 266 265 -3 33 -8 42 -43 61 -48 27 -145 30
-215 6z m151 -73 c26 -14 24 -38 -6 -83 -34 -49 -86 -81 -165 -101 -61 -16
-65 -16 -83 2 -54 55 5 150 113 183 37 11 119 10 141 -1z"/>
<path d="M1529 1910 c-56 -36 -78 -72 -59 -95 16 -19 38 -19 81 -1 80 34 115
91 70 116 -30 15 -44 13 -92 -20z"/>
<path d="M2410 1829 c-19 -17 -87 -56 -150 -87 -172 -84 -246 -166 -206 -227
30 -45 72 -60 176 -59 121 0 212 29 337 106 75 47 97 78 90 127 -10 74 -31
106 -90 134 -88 41 -116 42 -157 6z m117 -91 c35 -24 47 -46 38 -69 -8 -18
-90 -80 -129 -97 -127 -56 -286 -59 -286 -7 0 8 3 15 8 15 4 0 18 10 32 23 95
86 218 157 273 157 17 0 46 -10 64 -22z"/>
<path d="M4830 1803 c-69 -11 -163 -49 -196 -80 -35 -32 -36 -35 -32 -88 4
-51 9 -61 54 -106 l49 -50 63 6 c35 4 94 17 132 29 129 43 177 94 168 180 -3
26 -14 56 -23 67 -33 36 -133 56 -215 42z m114 -87 c19 -8 37 -19 41 -25 11
-19 -39 -76 -82 -93 -81 -33 -143 -49 -163 -43 -23 7 -70 65 -70 87 0 62 184
112 274 74z"/>
<path d="M3515 1734 c-93 -13 -260 -74 -349 -128 -47 -28 -48 -30 -42 -67 11
-69 22 -84 98 -129 l73 -44 100 0 c92 1 105 3 162 32 126 63 185 128 185 207
0 52 -12 77 -51 104 -30 22 -115 33 -176 25z m119 -89 c20 -8 36 -22 36 -30 0
-26 -47 -99 -83 -128 -34 -28 -39 -29 -144 -29 -171 -1 -168 -1 -209 37 -36
35 -37 35 -18 56 22 24 153 89 180 89 10 0 26 5 34 10 24 15 163 12 204 -5z"/>
<path d="M4189 1561 c-133 -48 -270 -145 -284 -203 -20 -78 121 -194 240 -197
96 -3 206 83 289 226 l48 83 -19 32 c-34 58 -76 78 -157 77 -39 -1 -92 -9
-117 -18z m174 -77 c56 -21 -29 -159 -131 -212 -54 -28 -145 -30 -184 -4 -33
22 -68 61 -68 77 0 35 141 129 220 146 37 8 135 4 163 -7z"/>
<path d="M2773 1430 c-45 -10 -120 -57 -139 -85 -37 -56 27 -148 112 -161 111
-16 226 15 278 76 25 30 25 32 10 68 -38 93 -137 132 -261 102z m160 -72 c9
-7 19 -25 23 -41 6 -25 2 -29 -37 -47 -56 -25 -170 -28 -193 -4 -18 18 -18 17
-10 39 18 45 176 84 217 53z"/>
<path d="M3579 1334 c-13 -7 -58 -30 -99 -50 -41 -20 -88 -44 -105 -52 -48
-24 -83 -62 -101 -108 -15 -40 -15 -45 2 -81 27 -53 85 -89 169 -104 164 -28
329 44 363 160 31 103 -12 183 -118 221 -78 27 -88 28 -111 14z m128 -128 c40
-43 40 -74 2 -127 -35 -50 -92 -73 -184 -73 -108 0 -175 28 -175 73 0 22 12
42 48 78 62 64 135 94 216 90 54 -3 62 -7 93 -41z"/>
<path d="M4329 986 c-108 -30 -223 -119 -235 -182 -13 -72 19 -127 93 -160
121 -54 301 -14 405 88 41 40 48 53 48 87 0 75 -64 140 -163 167 -62 16 -87
16 -148 0z m170 -97 c53 -30 57 -45 24 -93 -51 -72 -150 -108 -256 -92 -43 7
-107 52 -107 76 0 6 21 32 48 58 81 82 200 102 291 51z"/>
</g>
</svg>
