<?xml version="1.0" standalone="no"?>
<!DOCTYPE svg PUBLIC "-//W3C//DTD SVG 20010904//EN"
 "http://www.w3.org/TR/2001/REC-SVG-20010904/DTD/svg10.dtd">
<svg version="1.0" xmlns="http://www.w3.org/2000/svg"
 width="306.000000pt" height="313.000000pt" viewBox="0 0 306.000000 313.000000"
 preserveAspectRatio="xMidYMid meet">
<metadata>
Created by potrace 1.10, written by Peter Selinger 2001-2011
</metadata>
<g transform="translate(0.000000,313.000000) scale(0.100000,-0.100000)"
fill="#000000" stroke="none">
<path d="M1121 3105 c-143 -32 -245 -105 -298 -213 -26 -54 -28 -66 -31 -210
-2 -84 -1 -164 2 -177 10 -38 57 -86 106 -109 41 -19 68 -21 302 -24 237 -4
258 -5 274 -23 17 -19 7 -19 -513 -19 -297 0 -553 -4 -581 -10 -155 -29 -278
-150 -339 -334 -27 -80 -27 -84 -31 -410 -3 -274 -1 -340 12 -400 34 -149 111
-266 228 -344 l71 -47 177 -3 c244 -4 224 -28 230 270 l5 233 33 67 c35 73 87
124 164 164 101 51 130 54 583 54 444 0 496 5 583 49 57 29 111 88 146 161
l31 65 3 474 c2 401 0 481 -13 526 -32 111 -122 200 -248 246 -60 22 -75 23
-447 26 -302 2 -399 -1 -449 -12z m837 -49 c29 -8 72 -24 94 -35 23 -11 45
-18 50 -15 5 3 8 2 6 -3 -1 -4 17 -27 39 -50 23 -23 52 -68 65 -100 23 -58 23
-59 23 -508 0 -411 -2 -455 -18 -505 -11 -30 -27 -67 -38 -81 -22 -31 -24 -43
-7 -33 8 4 10 3 5 -2 -5 -5 -12 -9 -15 -9 -15 -1 -62 -38 -57 -45 3 -4 -3 -14
-12 -21 -14 -12 -16 -12 -8 0 6 11 4 13 -11 6 -76 -32 -122 -35 -534 -35 -440
0 -493 -4 -594 -47 -84 -35 -111 -54 -94 -65 9 -7 7 -9 -7 -5 -11 2 -26 -2
-33 -10 -7 -7 -9 -13 -5 -13 4 0 -3 -7 -15 -16 -13 -9 -21 -22 -18 -30 3 -8 0
-11 -8 -8 -21 8 -67 -98 -77 -175 -5 -36 -8 -143 -9 -238 0 -94 -4 -174 -8
-177 -12 -7 -301 -11 -335 -5 -15 3 -30 9 -35 14 -4 4 -1 5 6 1 6 -4 12 -5 12
-2 0 9 -57 36 -64 31 -3 -3 -4 -2 -2 1 2 3 -18 26 -45 51 -60 56 -145 216
-139 262 1 7 -3 10 -8 7 -6 -3 -8 122 -5 329 3 321 5 338 28 421 35 117 58
159 129 229 50 50 73 65 129 83 66 22 78 22 622 22 l555 0 6 26 c8 32 -8 80
-25 76 -7 -1 -10 2 -6 7 15 25 -43 31 -272 31 -142 0 -254 5 -278 11 -21 6
-54 26 -72 44 l-33 33 0 146 c0 121 3 154 20 199 36 97 131 171 258 201 83 21
765 22 840 2z"/>
<path d="M1797 3026 c-15 -14 -23 -28 -17 -31 5 -3 7 -11 5 -18 -7 -19 31 -56
75 -73 61 -23 120 -56 115 -64 -4 -6 2 -7 12 -3 10 3 15 3 11 -1 -4 -5 3 -18
15 -31 39 -40 56 -63 50 -69 -3 -3 2 -8 11 -12 9 -3 13 -11 9 -18 -3 -6 -3 -8
1 -4 11 9 46 -23 39 -35 -4 -6 -1 -7 8 -1 8 5 21 9 29 9 23 0 41 46 36 89 -9
74 -55 146 -130 202 -37 28 -73 51 -79 52 -7 0 -30 7 -52 16 -61 23 -108 20
-138 -8z m181 -27 c130 -67 207 -167 200 -262 -3 -37 -6 -42 -28 -42 -18 0
-34 13 -60 50 -59 84 -111 128 -203 173 -93 45 -101 57 -71 101 14 20 23 22
57 18 22 -3 69 -20 105 -38z"/>
<path d="M1083 2859 c-17 -5 -43 -23 -57 -39 -73 -87 -15 -220 96 -220 76 0
128 53 128 130 0 95 -78 155 -167 129z m19 -61 c-20 -20 -14 -48 18 -80 23
-23 36 -29 55 -24 36 9 41 -12 9 -37 -39 -30 -96 -31 -124 -2 -46 49 -41 122
11 159 26 18 52 5 31 -16z m91 -15 c13 -15 13 -21 2 -36 -20 -27 -57 -18 -66
15 -10 39 34 53 64 21z"/>
<path d="M290 2215 c-25 -13 -59 -38 -77 -57 -33 -35 -97 -146 -107 -188 -4
-14 9 7 27 46 59 122 146 200 236 211 35 4 50 1 60 -10 20 -25 5 -51 -56 -93
-73 -50 -121 -113 -157 -203 -30 -78 -43 -89 -85 -75 -21 8 -27 17 -32 54 l-6
45 -1 -41 c-2 -47 23 -84 58 -84 31 0 71 47 98 115 28 70 79 135 126 160 19
11 33 23 30 27 -3 4 0 8 7 8 17 0 38 31 39 56 0 11 6 26 13 33 10 10 9 11 -4
6 -10 -4 -20 -2 -24 4 -12 20 -97 11 -145 -14z"/>
<path d="M2373 2338 c-12 -6 -26 -22 -32 -37 -5 -14 -12 -120 -14 -236 -3
-186 -6 -216 -25 -266 -25 -64 -76 -128 -128 -159 -30 -19 -33 -24 -22 -39 11
-14 11 -14 -3 -4 -12 10 -22 10 -47 1 -18 -7 -32 -16 -32 -21 0 -4 -4 -5 -10
-2 -5 3 -16 3 -22 -2 -15 -9 -20 -10 -48 -12 -25 -1 -26 -18 -2 -25 13 -4 13
-4 -3 -3 -11 1 -27 -2 -35 -7 -12 -7 -13 -6 -2 5 14 15 16 33 3 24 -5 -3 -202
-6 -438 -6 -235 0 -437 -5 -448 -9 -11 -5 -14 -9 -7 -9 7 -1 10 -5 7 -11 -4
-6 -13 -5 -25 2 -15 10 -28 8 -70 -12 -74 -35 -139 -110 -170 -196 l-25 -69 0
-465 c0 -463 0 -465 23 -522 30 -75 108 -160 176 -193 65 -32 148 -55 198 -55
54 0 55 16 1 24 -26 3 -55 14 -66 24 -13 11 -21 13 -24 6 -2 -6 -14 -9 -28 -7
-13 3 -22 10 -19 17 3 8 -6 13 -26 13 -17 0 -38 8 -48 18 -16 18 -16 18 1 6 9
-8 20 -11 23 -9 3 3 -9 12 -25 19 -17 8 -31 20 -31 27 0 7 -5 10 -11 7 -15
-10 -51 32 -58 69 -4 17 -13 31 -21 31 -11 0 -14 11 -13 38 1 21 -1 36 -5 33
-4 -2 -6 195 -5 437 3 487 7 529 64 607 17 23 27 45 24 51 -4 5 -3 8 2 7 4 -1
30 11 57 27 85 50 132 55 582 55 226 0 426 3 443 6 26 6 30 10 25 28 -6 20 -5
20 8 2 13 -17 19 -17 54 -6 47 15 141 67 151 83 4 7 0 6 -10 -2 -9 -7 -17 -10
-17 -6 0 4 -8 1 -17 -6 -16 -13 -17 -12 -4 3 7 10 17 15 22 12 5 -3 9 0 9 6 0
7 8 9 20 5 15 -5 26 4 51 37 41 56 82 145 75 163 -3 8 -1 15 4 15 6 0 10 77
11 198 1 108 4 208 8 222 l7 25 144 3 c156 3 196 -3 254 -43 21 -14 42 -23 47
-19 5 3 8 2 7 -3 -2 -5 13 -29 33 -53 52 -65 76 -109 101 -181 19 -57 22 -93
28 -339 3 -151 8 -259 9 -240 3 27 5 30 8 12 3 -13 1 -31 -3 -40 -3 -9 -6 -33
-5 -52 1 -19 -3 -50 -8 -67 -6 -22 -6 -33 1 -33 5 0 8 -6 5 -12 -2 -7 -11 -12
-18 -10 -11 3 -11 1 -2 -9 13 -13 0 -58 -20 -71 -9 -6 -8 -8 2 -8 11 0 10 -5
-3 -25 -9 -13 -16 -33 -16 -44 0 -20 -15 -35 -35 -36 -5 0 -9 -8 -7 -17 1 -9
-3 -20 -9 -24 -8 -5 -10 -2 -4 7 4 8 -4 1 -18 -16 -13 -16 -23 -35 -20 -41 2
-6 -3 -14 -12 -18 -10 -3 -14 -2 -9 5 4 8 0 8 -14 0 -26 -14 -37 -31 -20 -31
7 -1 -2 -8 -21 -16 -19 -8 -41 -12 -49 -9 -10 3 -12 0 -8 -10 4 -10 -1 -15
-14 -15 -11 0 -20 5 -20 11 0 9 -4 9 -13 0 -8 -6 -28 -9 -46 -7 -17 2 -34 0
-37 -5 -3 -5 -224 -8 -492 -7 -268 1 -496 -1 -506 -4 -11 -2 -22 -10 -24 -17
-3 -9 125 -11 565 -9 l568 3 65 32 c112 55 198 165 245 315 24 75 25 89 27
420 3 307 1 350 -15 407 -52 182 -175 326 -309 359 -58 15 -315 15 -345 0z"/>
<path d="M2675 2248 c22 -11 42 -24 45 -27 3 -3 26 -22 51 -41 26 -19 61 -55
78 -80 21 -30 31 -38 31 -26 0 19 -112 136 -130 136 -5 0 -10 4 -10 8 0 11
-74 52 -91 52 -8 -1 4 -10 26 -22z"/>
<path d="M2630 2123 c0 -5 21 -21 45 -38 25 -16 45 -34 45 -38 0 -5 11 -23 25
-41 14 -18 25 -38 25 -43 0 -6 7 -16 15 -23 20 -16 19 -7 -3 33 -36 66 -66
104 -103 130 -39 28 -49 32 -49 20z"/>
<path d="M2900 1950 c0 -11 5 -20 10 -20 6 0 10 9 10 20 0 11 -4 20 -10 20 -5
0 -10 -9 -10 -20z"/>
<path d="M1028 1448 c-21 -11 -38 -25 -38 -30 0 -9 19 0 75 39 29 20 5 14 -37
-9z"/>
<path d="M939 1365 c-13 -25 -27 -45 -30 -45 -4 0 -10 -12 -14 -27 -3 -16 -14
-43 -22 -61 -9 -18 -13 -35 -10 -38 3 -3 13 16 23 43 10 26 21 50 24 53 3 3
16 26 29 53 13 26 28 47 33 47 4 0 8 5 8 10 0 23 -19 7 -41 -35z"/>
<path d="M1190 1401 c0 -5 -10 -13 -22 -17 -32 -10 -127 -103 -148 -144 -10
-19 -25 -53 -34 -75 -13 -33 -13 -37 -1 -21 8 11 15 26 15 34 0 7 5 10 10 7 6
-3 10 -3 11 2 4 40 21 65 97 141 23 23 52 42 64 42 12 0 18 3 15 7 -4 3 -2 12
4 20 9 9 8 13 0 13 -6 0 -11 -4 -11 -9z"/>
<path d="M960 1106 c0 -8 -8 -20 -17 -25 -10 -6 -13 -11 -7 -11 18 0 47 37 35
45 -6 3 -11 -1 -11 -9z"/>
<path d="M1938 1063 c12 -2 30 -2 40 0 9 3 -1 5 -23 4 -22 0 -30 -2 -17 -4z"/>
<path d="M1500 1000 c-14 -11 -21 -20 -17 -20 5 0 20 9 34 20 14 11 22 20 17
20 -5 0 -20 -9 -34 -20z"/>
<path d="M1537 803 c-13 -12 -7 -43 12 -62 17 -17 39 -19 267 -20 137 -1 258
-4 270 -7 11 -3 36 -7 55 -8 26 -2 33 -7 31 -21 -2 -12 1 -16 11 -12 8 3 23
-1 34 -8 10 -8 13 -15 7 -15 -5 0 -16 6 -23 13 -11 10 -11 8 0 -10 7 -12 17
-19 22 -16 4 3 5 -12 2 -34 -5 -30 -4 -35 5 -23 9 11 10 -14 5 -105 -8 -155
-8 -155 -18 -148 -5 3 -6 -4 -3 -15 9 -29 -3 -72 -19 -66 -8 3 -15 -7 -19 -30
-4 -21 -13 -36 -21 -36 -8 0 -17 -5 -21 -12 -5 -7 -3 -8 7 -3 12 8 12 6 0 -8
-15 -18 -26 -23 -16 -7 9 15 -11 12 -24 -4 -9 -11 -9 -15 1 -20 7 -3 2 -3 -11
0 -19 5 -23 3 -18 -9 3 -9 -1 -18 -9 -21 -8 -3 -13 -2 -10 3 4 5 -10 4 -29 -2
-19 -6 -35 -17 -35 -24 0 -10 -10 -12 -37 -8 -27 4 -32 3 -18 -4 19 -8 19 -9
-5 -15 -14 -3 -47 -7 -74 -8 -57 -3 -78 -28 -24 -28 65 0 153 22 223 55 84 39
145 101 183 183 23 51 26 72 30 203 5 161 -3 201 -46 244 -51 52 -73 55 -352
55 -142 0 -266 3 -275 6 -9 4 -21 17 -26 30 -9 24 -20 30 -32 17z"/>
<path d="M1220 588 c-19 -24 -26 -37 -17 -29 19 15 61 71 54 71 -2 0 -19 -19
-37 -42z"/>
<path d="M1862 480 c-84 -51 -79 -186 8 -232 45 -23 87 -23 127 2 45 27 65 62
65 114 2 105 -111 170 -200 116z m120 -32 c70 -33 52 -154 -26 -174 -27 -6
-30 -2 -17 31 16 40 -39 105 -76 91 -11 -5 -13 -2 -8 11 4 10 8 23 8 30 0 7 4
10 9 7 4 -3 8 0 8 5 0 15 70 14 102 -1z m-78 -106 c15 -18 15 -20 -3 -36 -26
-23 -61 -13 -61 18 0 12 3 26 7 29 12 13 40 7 57 -11z"/>
<path d="M943 443 c9 -2 25 -2 35 0 9 3 1 5 -18 5 -19 0 -27 -2 -17 -5z"/>
<path d="M1313 43 c15 -2 39 -2 55 0 15 2 2 4 -28 4 -30 0 -43 -2 -27 -4z"/>
</g>
</svg>
